# xmcd
#
# Track frame offsets: 
#        150
#        23254
#        50020
#        67426
#        99720
#        124659
#        149141
#        184645
#        201928
#        216871
#        241517
#
# Disc length: 3693 seconds
#
# Revision: 1
# Processed by: cddbd v1.5.2PL0 Copyright (c) Steve Scherf et al.
# Submitted via: ExactAudioCopy v0.95a4
#
DISCID=a50e6b0b
DTITLE=Nick Moss - Privileged
DYEAR=2010
DGENRE=Blues
TTITLE0=Born Leader
TTITLE1=Louise
TTITLE2=Georgia Redsnake
TTITLE3=Privileged at Birth
TTITLE4=Politician
TTITLE5=She's So Fine (Born Blind)
TTITLE6=Tear'em Down
TTITLE7=For What It's Worth
TTITLE8=Why Should I Care
TTITLE9=Your Love's a Lie
TTITLE10=Bolognious Funk
EXTD=
EXTT0=
EXTT1=
EXTT2=
EXTT3=
EXTT4=
EXTT5=
EXTT6=
EXTT7=
EXTT8=
EXTT9=
EXTT10=
PLAYORDER=
